<?xml version="1.0" standalone="no"?>
<!DOCTYPE svg PUBLIC "-//W3C//DTD SVG 20010904//EN"
 "http://www.w3.org/TR/2001/REC-SVG-20010904/DTD/svg10.dtd">
<svg version="1.0" xmlns="http://www.w3.org/2000/svg"
 width="247.000000pt" height="249.000000pt" viewBox="0 0 247.000000 249.000000"
 preserveAspectRatio="xMidYMid meet">

<g transform="translate(0.000000,249.000000) scale(0.100000,-0.100000)"
fill="#000000" stroke="none">
<path d="M1085 2419 c-108 -14 -240 -54 -350 -108 -55 -27 -108 -55 -119 -63
-18 -14 -18 -16 9 -57 16 -23 31 -40 34 -39 3 2 42 22 86 44 100 52 213 89
329 109 49 8 90 16 91 18 2 1 5 26 7 55 3 34 1 52 -6 51 -6 -1 -42 -5 -81 -10z"/>
<path d="M1302 2371 l3 -55 80 -13 c179 -30 393 -122 517 -222 l73 -59 23 26
c47 56 47 56 -28 108 l-70 48 -29 -35 c-35 -41 -54 -32 -23 11 12 16 22 31 22
34 0 2 -33 27 -74 54 -104 70 -286 133 -432 151 l-65 8 3 -56z"/>
<path d="M1197 2213 c-4 -3 -7 -37 -7 -75 l0 -69 43 3 42 3 3 73 3 72 -39 0
c-21 0 -42 -3 -45 -7z"/>
<path d="M457 2143 c-20 -14 -37 -31 -37 -37 1 -6 16 -29 35 -51 l34 -40 36
35 c19 18 35 38 35 44 0 12 -49 76 -58 76 -4 0 -24 -12 -45 -27z"/>
<path d="M885 2128 c-11 -6 -21 -12 -23 -13 -2 -1 5 -21 14 -44 16 -41 34 -50
63 -32 11 7 11 15 -1 52 -16 48 -24 53 -53 37z"/>
<path d="M1531 2097 c-21 -47 -18 -54 25 -63 29 -5 31 -3 43 36 7 23 11 43 9
44 -2 1 -16 7 -31 14 -27 12 -28 11 -46 -31z"/>
<path d="M282 1944 c-116 -148 -200 -340 -227 -521 -23 -150 -25 -143 39 -143
l54 0 7 63 c21 207 81 365 198 529 l55 77 -32 37 -32 37 -62 -79z"/>
<path d="M2088 1976 l-37 -36 38 -45 c117 -141 221 -415 221 -581 l0 -34 56 0
57 0 -7 76 c-19 213 -124 463 -258 617 l-33 39 -37 -36z"/>
<path d="M610 1975 l-24 -25 30 -32 c42 -47 45 -48 71 -31 32 21 29 33 -15 76
l-38 37 -24 -25z"/>
<path d="M1781 1965 c-36 -42 -37 -46 -13 -68 27 -24 37 -21 71 22 l30 38 -22
22 c-13 11 -26 21 -29 21 -3 0 -20 -16 -37 -35z"/>
<path d="M1115 1940 c-130 -17 -214 -58 -293 -145 -91 -99 -128 -214 -120
-372 7 -138 58 -227 162 -281 45 -23 67 -27 176 -31 l125 -6 3 -182 2 -183
-35 0 c-20 0 -50 6 -68 14 -35 14 -112 92 -142 144 -11 17 -22 32 -26 32 -4 0
-40 -16 -80 -35 -41 -19 -79 -35 -86 -35 -26 0 -24 -24 7 -87 87 -176 319
-298 533 -280 41 4 76 12 86 21 10 9 55 23 101 32 99 18 138 37 204 95 180
159 221 454 82 592 -67 67 -125 89 -261 98 -162 10 -155 -1 -155 230 0 196 -3
189 61 168 50 -17 114 -84 144 -151 19 -43 31 -58 43 -56 9 2 54 12 100 22 77
18 82 21 82 45 0 39 -61 159 -108 212 -97 109 -317 166 -537 139z m53 -365 c2
-93 0 -185 -3 -202 l-6 -33 -65 0 c-76 0 -122 17 -153 56 -31 40 -25 100 22
199 64 134 87 156 162 152 l40 -2 3 -170z m392 -492 c51 -65 -8 -247 -98 -304
-54 -34 -116 -40 -127 -12 -7 19 -5 296 3 325 4 16 17 18 102 18 96 0 99 -1
120 -27z"/>
<path d="M451 1764 c-12 -15 -21 -33 -21 -40 0 -12 58 -50 65 -42 1 2 10 17
19 35 16 31 16 32 -13 52 l-29 21 -21 -26z"/>
<path d="M1937 1770 l-26 -21 21 -34 c22 -39 33 -42 66 -19 27 19 27 28 1 65
-24 34 -29 35 -62 9z"/>
<path d="M362 1591 l-21 -38 34 -16 35 -17 15 36 c19 46 20 41 -13 58 -28 15
-29 14 -50 -23z"/>
<path d="M2042 1605 l-32 -14 19 -53 c11 -29 23 -71 26 -93 13 -86 13 -85 50
-85 31 0 35 3 35 28 0 30 -48 213 -58 224 -4 4 -22 0 -40 -7z"/>
<path d="M316 1442 c-2 -4 -7 -21 -10 -39 -7 -29 -5 -32 23 -38 39 -8 51 0 51
35 0 22 -6 30 -30 38 -16 6 -31 8 -34 4z"/>
<path d="M2070 1210 l0 -50 45 0 45 0 0 50 0 50 -45 0 -45 0 0 -50z"/>
<path d="M293 1225 c-9 -24 6 -131 28 -214 37 -134 122 -293 209 -391 l30 -35
29 34 29 33 -49 61 c-92 115 -169 307 -185 463 l-7 64 -39 0 c-26 0 -41 -5
-45 -15z"/>
<path d="M2329 1163 c-13 -3 -20 -25 -29 -86 -33 -228 -128 -416 -294 -583
-182 -183 -411 -296 -643 -320 l-61 -7 -4 -59 -3 -60 73 6 c388 36 753 291
932 651 65 130 106 269 117 393 l6 72 -39 -1 c-21 -1 -46 -3 -55 -6z"/>
<path d="M43 1092 c22 -233 136 -473 314 -661 186 -197 413 -323 661 -366 115
-20 166 -20 158 1 -3 9 -6 35 -6 58 l0 43 -63 7 c-355 36 -702 287 -858 620
-45 98 -77 207 -86 299 l-6 67 -60 0 -60 0 6 -68z"/>
<path d="M2067 1063 c-3 -5 -8 -23 -12 -42 -8 -37 3 -51 41 -51 27 0 54 77 32
91 -16 11 -55 12 -61 2z"/>
<path d="M1982 846 l-21 -36 29 -15 c41 -21 48 -19 67 20 18 39 13 50 -28 60
-22 6 -29 1 -47 -29z"/>
<path d="M1883 697 c-34 -38 -34 -44 4 -73 l36 -27 24 29 c12 16 23 32 23 35
0 4 -15 18 -34 32 l-33 26 -20 -22z"/>
<path d="M666 529 c-25 -30 -26 -32 -9 -45 25 -18 37 -17 58 6 12 13 15 27 11
45 -9 34 -29 32 -60 -6z"/>
<path d="M1647 476 c-32 -18 -37 -25 -32 -46 4 -14 10 -29 15 -34 11 -11 49
-1 78 22 20 16 21 20 10 50 -14 37 -19 38 -71 8z"/>
<path d="M790 445 c-24 -39 -22 -49 19 -63 26 -9 29 -8 45 24 20 44 21 41 -13
59 -29 15 -30 14 -51 -20z"/>
<path d="M1186 378 c-3 -13 -6 -44 -6 -70 l0 -48 49 0 c46 0 49 1 55 31 3 17
6 49 6 70 l0 39 -49 0 c-42 0 -49 -3 -55 -22z"/>
</g>
</svg>
